<?xml version="1.0" encoding="utf-8"?>
<!-- Generator: Adobe Illustrator 24.1.0, SVG Export Plug-In . SVG Version: 6.00 Build 0)  -->
<svg version="1.1" id="Layer_1" xmlns="http://www.w3.org/2000/svg" xmlns:xlink="http://www.w3.org/1999/xlink" x="0px" y="0px"
	 viewBox="0 0 316.23 55.29" style="enable-background:new 0 0 316.23 55.29;" xml:space="preserve">
<style type="text/css">
	.st0{fill:#C2533D;}
	.st1{fill:#FAA546;}
	.st2{fill:#535353;}
</style>
<g>
	<g>
		<path class="st0" d="M38.85,32.72c0,0.85-0.69,1.54-1.54,1.54c-0.85,0-1.54-0.69-1.54-1.54c0-0.85,0.69-1.54,1.54-1.54
			C38.16,31.18,38.85,31.87,38.85,32.72"/>
		<path class="st0" d="M33.49,22.89c0,0.85-0.69,1.54-1.54,1.54c-0.85,0-1.54-0.69-1.54-1.54c0-0.85,0.69-1.54,1.54-1.54
			C32.8,21.35,33.49,22.04,33.49,22.89"/>
		<path class="st0" d="M31.7,7.92c0,0.85-0.69,1.54-1.54,1.54c-0.85,0-1.54-0.69-1.54-1.54c0-0.85,0.69-1.54,1.54-1.54
			C31.01,6.38,31.7,7.07,31.7,7.92"/>
		<path class="st0" d="M24.91,25.9c0,1.85-1.5,3.35-3.35,3.35c-1.85,0-3.35-1.5-3.35-3.35c0-1.85,1.5-3.35,3.35-3.35
			C23.41,22.55,24.91,24.05,24.91,25.9"/>
		<path class="st0" d="M35.19,49.69c0,1.79-1.45,3.24-3.24,3.24c-1.79,0-3.24-1.45-3.24-3.24c0-1.79,1.45-3.24,3.24-3.24
			C33.74,46.46,35.19,47.91,35.19,49.69"/>
		<path class="st0" d="M23.1,19.34c0,0.85-0.69,1.54-1.54,1.54c-0.85,0-1.54-0.69-1.54-1.54c0-0.85,0.69-1.54,1.54-1.54
			C22.41,17.8,23.1,18.49,23.1,19.34"/>
		<path class="st0" d="M39.85,17.41c0,0.85-0.69,1.54-1.54,1.54c-0.85,0-1.54-0.69-1.54-1.54c0-0.85,0.69-1.54,1.54-1.54
			C39.16,15.87,39.85,16.56,39.85,17.41"/>
		<path class="st0" d="M38.63,9.04c0,0.85-0.69,1.54-1.54,1.54c-0.85,0-1.54-0.69-1.54-1.54c0-0.85,0.69-1.54,1.54-1.54
			C37.94,7.5,38.63,8.19,38.63,9.04"/>
		<path class="st0" d="M23.88,3.9c0,0.85-0.69,1.54-1.54,1.54c-0.85,0-1.54-0.69-1.54-1.54c0-0.85,0.69-1.54,1.54-1.54
			C23.19,2.36,23.88,3.05,23.88,3.9"/>
		<path class="st0" d="M25.67,31.38c0,0.85-0.69,1.54-1.54,1.54c-0.85,0-1.54-0.69-1.54-1.54c0-0.85,0.69-1.54,1.54-1.54
			C24.98,29.84,25.67,30.53,25.67,31.38"/>
		<path class="st0" d="M47.11,24.9c0,0.85-0.69,1.54-1.54,1.54c-0.85,0-1.54-0.69-1.54-1.54c0-0.85,0.69-1.54,1.54-1.54
			C46.43,23.36,47.11,24.05,47.11,24.9"/>
		<path class="st0" d="M43.45,27.58c0,1.79-1.45,3.24-3.24,3.24s-3.24-1.45-3.24-3.24c0-1.79,1.45-3.24,3.24-3.24
			S43.45,25.79,43.45,27.58"/>
		<path class="st0" d="M14.01,16.61c0,0.85-0.69,1.54-1.54,1.54c-0.85,0-1.54-0.69-1.54-1.54c0-0.85,0.69-1.54,1.54-1.54
			C13.32,15.07,14.01,15.76,14.01,16.61"/>
		<path class="st0" d="M11.37,24.9c0,0.85-0.69,1.54-1.54,1.54c-0.85,0-1.54-0.69-1.54-1.54c0-0.85,0.69-1.54,1.54-1.54
			C10.68,23.36,11.37,24.05,11.37,24.9"/>
		<path class="st0" d="M7.8,16.43c0,0.85-0.69,1.54-1.54,1.54c-0.85,0-1.54-0.69-1.54-1.54c0-0.85,0.69-1.54,1.54-1.54
			C7.11,14.89,7.8,15.58,7.8,16.43"/>
		<path class="st0" d="M17.65,20.41c0,0.85-0.69,1.54-1.54,1.54c-0.85,0-1.54-0.69-1.54-1.54c0-0.85,0.69-1.54,1.54-1.54
			C16.96,18.87,17.65,19.56,17.65,20.41"/>
		<path class="st0" d="M30.36,18.87c0,0.85-0.69,1.54-1.54,1.54c-0.85,0-1.54-0.69-1.54-1.54c0-0.85,0.69-1.54,1.54-1.54
			C29.67,17.33,30.36,18.02,30.36,18.87"/>
		<path class="st0" d="M38.29,22.11c0,0.85-0.69,1.54-1.54,1.54c-0.85,0-1.54-0.69-1.54-1.54c0-0.85,0.69-1.54,1.54-1.54
			C37.6,20.56,38.29,21.25,38.29,22.11"/>
		<path class="st0" d="M30.03,25.9c0,0.85-0.69,1.54-1.54,1.54c-0.85,0-1.54-0.69-1.54-1.54c0-0.85,0.69-1.54,1.54-1.54
			C29.34,24.36,30.03,25.05,30.03,25.9"/>
		<path class="st0" d="M48.34,20.32c0,0.85-0.69,1.54-1.54,1.54c-0.85,0-1.54-0.69-1.54-1.54c0-0.85,0.69-1.54,1.54-1.54
			C47.65,18.78,48.34,19.47,48.34,20.32"/>
		<path class="st0" d="M22.99,14.17c0,0.85-0.69,1.54-1.54,1.54c-0.85,0-1.54-0.69-1.54-1.54c0-0.85,0.69-1.54,1.54-1.54
			C22.3,12.63,22.99,13.32,22.99,14.17"/>
		<path class="st0" d="M26.12,7.92c0,0.85-0.69,1.54-1.54,1.54c-0.85,0-1.54-0.69-1.54-1.54c0-0.85,0.69-1.54,1.54-1.54
			C25.43,6.38,26.12,7.07,26.12,7.92"/>
		<path class="st0" d="M38.63,45c0,0.85-0.69,1.54-1.54,1.54c-0.85,0-1.54-0.69-1.54-1.54c0-0.85,0.69-1.54,1.54-1.54
			C37.94,43.46,38.63,44.15,38.63,45"/>
		<path class="st0" d="M27.01,42.77c0,0.85-0.69,1.54-1.54,1.54c-0.85,0-1.54-0.69-1.54-1.54c0-0.85,0.69-1.54,1.54-1.54
			C26.32,41.23,27.01,41.92,27.01,42.77"/>
		<path class="st0" d="M32.59,34.28c0,0.85-0.69,1.54-1.54,1.54c-0.85,0-1.54-0.69-1.54-1.54c0-0.85,0.69-1.54,1.54-1.54
			C31.9,32.74,32.59,33.43,32.59,34.28"/>
		<path class="st0" d="M18.21,10.6c0,1.79-1.45,3.24-3.24,3.24s-3.24-1.45-3.24-3.24c0-1.79,1.45-3.24,3.24-3.24
			S18.21,8.81,18.21,10.6"/>
		<path class="st1" d="M28.93,36.96c0,1.79-1.45,3.24-3.24,3.24c-1.79,0-3.24-1.45-3.24-3.24c0-1.79,1.45-3.24,3.24-3.24
			C27.48,33.72,28.93,35.17,28.93,36.96"/>
		<path class="st1" d="M36.3,13.06c0,1.79-1.45,3.24-3.24,3.24s-3.24-1.45-3.24-3.24c0-1.79,1.45-3.24,3.24-3.24
			S36.3,11.27,36.3,13.06"/>
		<path class="st1" d="M38.76,38.75c0,1.79-1.45,3.24-3.24,3.24s-3.24-1.45-3.24-3.24c0-1.79,1.45-3.24,3.24-3.24
			S38.76,36.96,38.76,38.75"/>
		<path class="st1" d="M34.6,30.71c0,0.85-0.69,1.54-1.54,1.54c-0.85,0-1.54-0.69-1.54-1.54c0-0.85,0.69-1.54,1.54-1.54
			C33.92,29.17,34.6,29.86,34.6,30.71"/>
		<path class="st1" d="M41.75,35.84c0,0.85-0.69,1.54-1.54,1.54c-0.85,0-1.54-0.69-1.54-1.54c0-0.85,0.69-1.54,1.54-1.54
			C41.06,34.3,41.75,34.99,41.75,35.84"/>
		<path class="st1" d="M6.23,20.88c0,0.85-0.69,1.54-1.54,1.54c-0.85,0-1.54-0.69-1.54-1.54c0-0.85,0.69-1.54,1.54-1.54
			C5.54,19.34,6.23,20.03,6.23,20.88"/>
		<path class="st1" d="M13.38,6.36c0,0.85-0.69,1.54-1.54,1.54c-0.85,0-1.54-0.69-1.54-1.54c0-0.85,0.69-1.54,1.54-1.54
			C12.69,4.82,13.38,5.51,13.38,6.36"/>
		<path class="st1" d="M16.51,24.45c0,0.85-0.69,1.54-1.54,1.54c-0.85,0-1.54-0.69-1.54-1.54c0-0.85,0.69-1.54,1.54-1.54
			C15.82,22.91,16.51,23.6,16.51,24.45"/>
		<path class="st1" d="M10.92,12.81c0,0.85-0.69,1.54-1.54,1.54c-0.85,0-1.54-0.69-1.54-1.54c0-0.85,0.69-1.54,1.54-1.54
			C10.24,11.27,10.92,11.96,10.92,12.81"/>
		<path class="st1" d="M27.01,15.72c0,0.85-0.69,1.54-1.54,1.54c-0.85,0-1.54-0.69-1.54-1.54c0-0.85,0.69-1.54,1.54-1.54
			C26.32,14.17,27.01,14.86,27.01,15.72"/>
		<path class="st1" d="M35.28,18.87c0,0.85-0.69,1.54-1.54,1.54c-0.85,0-1.54-0.69-1.54-1.54c0-0.85,0.69-1.54,1.54-1.54
			C34.59,17.33,35.28,18.02,35.28,18.87"/>
		<path class="st1" d="M40.19,13.28c0,0.85-0.69,1.54-1.54,1.54c-0.85,0-1.54-0.69-1.54-1.54c0-0.85,0.69-1.54,1.54-1.54
			C39.5,11.74,40.19,12.43,40.19,13.28"/>
		<path class="st1" d="M27.34,21.98c0.07,0.85-0.56,1.59-1.4,1.66c-0.85,0.07-1.59-0.56-1.67-1.4c-0.07-0.85,0.56-1.59,1.41-1.66
			C26.52,20.5,27.27,21.13,27.34,21.98"/>
		<path class="st1" d="M11.37,20.43c0,0.85-0.69,1.54-1.54,1.54c-0.85,0-1.54-0.69-1.54-1.54c0-0.85,0.69-1.54,1.54-1.54
			C10.68,18.89,11.37,19.58,11.37,20.43"/>
		<path class="st1" d="M19.19,16.63c0,0.85-0.69,1.54-1.54,1.54c-0.85,0-1.54-0.69-1.54-1.54c0-0.85,0.69-1.54,1.54-1.54
			C18.5,15.09,19.19,15.78,19.19,16.63"/>
		<path class="st1" d="M27.99,11.36c0,0.85-0.69,1.54-1.54,1.54c-0.85,0-1.54-0.69-1.54-1.54c0-0.85,0.69-1.54,1.54-1.54
			C27.3,9.82,27.99,10.51,27.99,11.36"/>
		<path class="st1" d="M22.09,9.71c0,0.85-0.69,1.54-1.54,1.54c-0.85,0-1.54-0.69-1.54-1.54c0-0.85,0.69-1.54,1.54-1.54
			C21.4,8.17,22.09,8.86,22.09,9.71"/>
		<path class="st1" d="M43.32,20.88c0,0.85-0.69,1.54-1.54,1.54c-0.85,0-1.54-0.69-1.54-1.54c0-0.85,0.69-1.54,1.54-1.54
			C42.63,19.34,43.32,20.03,43.32,20.88"/>
		<path class="st1" d="M19.64,5.69c0,0.85-0.69,1.54-1.54,1.54c-0.85,0-1.54-0.69-1.54-1.54c0-0.85,0.69-1.54,1.54-1.54
			C18.95,4.15,19.64,4.83,19.64,5.69"/>
		<path class="st1" d="M33.93,43.89c0,0.85-0.69,1.54-1.54,1.54c-0.85,0-1.54-0.69-1.54-1.54c0-0.85,0.69-1.54,1.54-1.54
			C33.24,42.35,33.93,43.04,33.93,43.89"/>
		<path class="st1" d="M29.69,45.9c0,0.85-0.69,1.54-1.54,1.54c-0.85,0-1.54-0.69-1.54-1.54c0-0.85,0.69-1.54,1.54-1.54
			C29,44.36,29.69,45.05,29.69,45.9"/>
		<path class="st1" d="M30.81,41.21c0,0.85-0.69,1.54-1.54,1.54c-0.85,0-1.54-0.69-1.54-1.54c0-0.85,0.69-1.54,1.54-1.54
			C30.12,39.66,30.81,40.35,30.81,41.21"/>
		<path class="st1" d="M30.14,30.71c0,0.85-0.69,1.54-1.54,1.54c-0.85,0-1.54-0.69-1.54-1.54c0-0.85,0.69-1.54,1.54-1.54
			C29.45,29.17,30.14,29.86,30.14,30.71"/>
		<path class="st1" d="M36.17,26.68c0,0.85-0.69,1.54-1.54,1.54c-0.85,0-1.54-0.69-1.54-1.54c0-0.85,0.69-1.54,1.54-1.54
			C35.48,25.14,36.17,25.83,36.17,26.68"/>
	</g>
	<g>
		<path class="st2" d="M113.63,24.74c2.06,0,3.53-0.47,4.4-1.43c0.87-0.95,1.3-2.51,1.3-4.67c0-2.1-0.39-3.62-1.16-4.57
			c-0.77-0.95-2.16-1.42-4.15-1.42h-2.7v12.09H113.63z M104.09,7.69h9.59c4.19,0,7.33,0.79,9.39,2.38c2.07,1.59,3.1,4.32,3.1,8.19
			c0,2.53-0.37,4.58-1.11,6.17c-0.74,1.59-2.01,2.75-3.81,3.47l5.56,19.61h-7.28l-4.77-18.24h-3.44v18.24h-7.23V7.69z"/>
		<path class="st2" d="M149.1,44.58c-1.72-2.31-2.58-5.58-2.58-9.81V20.57c0-4.36,0.85-7.67,2.56-9.93c1.7-2.26,4.64-3.39,8.8-3.39
			c3.9,0,6.67,0.98,8.31,2.95c1.64,1.97,2.46,4.8,2.46,8.5v3.34h-6.98V18.6c0-1.41-0.07-2.52-0.2-3.32
			c-0.13-0.8-0.47-1.46-1.01-1.96c-0.54-0.51-1.39-0.76-2.53-0.76c-1.18,0-2.07,0.27-2.65,0.81c-0.59,0.54-0.98,1.26-1.16,2.16
			c-0.18,0.9-0.27,2.07-0.27,3.51V36.3c0,2.26,0.29,3.89,0.89,4.89c0.59,1,1.65,1.5,3.2,1.5c1.12,0,1.94-0.26,2.48-0.79
			c0.54-0.52,0.89-1.22,1.03-2.09c0.15-0.87,0.22-2.02,0.22-3.47v-3.59h6.98v3.2c0,3.83-0.8,6.81-2.41,8.92
			c-1.61,2.11-4.39,3.17-8.36,3.17C153.74,48.05,150.82,46.89,149.1,44.58"/>
		<path class="st2" d="M211.36,24.7c1.97,0,3.3-0.42,3.98-1.25c0.69-0.84,1.03-2.34,1.03-4.5c0-1.57-0.11-2.78-0.34-3.61
			c-0.23-0.84-0.7-1.47-1.4-1.89c-0.7-0.43-1.79-0.64-3.27-0.64h-2.8v11.9H211.36z M201.33,7.69h11.7c6.79,0,10.18,3.77,10.18,11.31
			c0,7.21-3.56,10.82-10.67,10.82h-3.98v17.7h-7.23V7.69z"/>
		<path class="st2" d="M242.33,41.17c0.56-1.02,0.84-2.49,0.84-4.43V18.4c0-1.93-0.27-3.39-0.81-4.38
			c-0.54-0.98-1.63-1.47-3.27-1.47c-1.64,0-2.74,0.5-3.29,1.5c-0.56,1-0.84,2.45-0.84,4.35v18.34c0,1.93,0.28,3.41,0.84,4.43
			c0.56,1.01,1.65,1.52,3.29,1.52C240.69,42.69,241.77,42.18,242.33,41.17 M230.24,44.73c-1.77-2.21-2.65-5.45-2.65-9.71V20.08
			c0-4.23,0.89-7.42,2.65-9.59c1.77-2.16,4.72-3.25,8.85-3.25c4.1,0,7.03,1.08,8.8,3.25c1.77,2.16,2.65,5.36,2.65,9.59v14.94
			c0,4.23-0.89,7.46-2.68,9.69c-1.79,2.23-4.71,3.34-8.78,3.34C234.96,48.05,232.01,46.94,230.24,44.73"/>
		<path class="st2" d="M295.01,45c-1.79-2.03-2.76-5.06-2.92-9.09l6.24-1.23c0.1,2.52,0.5,4.45,1.2,5.78
			c0.7,1.33,1.81,1.99,3.32,1.99c1.12,0,1.94-0.34,2.48-1.01c0.54-0.67,0.81-1.58,0.81-2.73c0-1.57-0.35-2.91-1.06-4.01
			c-0.71-1.1-1.81-2.3-3.32-3.61l-5.01-4.38c-1.54-1.31-2.7-2.72-3.47-4.23c-0.77-1.51-1.16-3.31-1.16-5.41
			c0-3.11,0.91-5.53,2.73-7.25c1.82-1.72,4.33-2.58,7.55-2.58c3.44,0,5.91,0.98,7.4,2.92c1.49,1.95,2.35,4.58,2.58,7.89l-6.24,1.08
			c-0.1-2.16-0.4-3.79-0.91-4.89c-0.51-1.1-1.5-1.65-2.98-1.65c-1.05,0-1.87,0.35-2.46,1.06c-0.59,0.71-0.89,1.6-0.89,2.68
			c0,1.28,0.25,2.35,0.76,3.22c0.51,0.87,1.34,1.8,2.48,2.78l4.97,4.38c1.87,1.61,3.33,3.33,4.38,5.16
			c1.05,1.83,1.57,3.97,1.57,6.39c0,1.9-0.42,3.59-1.25,5.06c-0.84,1.47-2.01,2.63-3.52,3.47c-1.51,0.84-3.24,1.25-5.21,1.25
			C299.49,48.05,296.8,47.03,295.01,45"/>
		<path class="st2" d="M68.74,33.69l-2.7-16.71l-2.7,16.71H68.74z M62.11,7.69h7.77l7.97,39.82H71.1l-1.57-9.19H62.6l-1.62,9.19
			h-6.83L62.11,7.69z"/>
		<polygon class="st2" points="82.8,7.69 99.17,7.69 99.17,12.7 90.03,12.7 90.03,24.3 97.5,24.3 97.5,29.37 90.03,29.37 
			90.03,47.51 82.8,47.51 		"/>
		<rect x="132.85" y="7.69" class="st2" width="7.18" height="39.82"/>
		<path class="st2" d="M187.27,33.69l-2.7-16.71l-2.7,16.71H187.27z M180.63,7.69h7.77l7.97,39.82h-6.74l-1.57-9.19h-6.93
			l-1.62,9.19h-6.83L180.63,7.69z"/>
		<polygon class="st2" points="256.88,7.69 264.11,7.69 264.11,42.54 273.8,42.54 273.8,47.51 256.88,47.51 		"/>
		<rect x="278.76" y="7.69" class="st2" width="7.18" height="39.82"/>
	</g>
</g>
<g>
	<path class="st2" d="M67.36,97.17c0-0.18,0.05-0.34,0.16-0.46c0.11-0.12,0.26-0.18,0.44-0.18c0.19,0,0.33,0.05,0.41,0.16
		c0.08,0.11,0.12,0.24,0.12,0.39c0,0.2-0.05,0.35-0.16,0.46s-0.26,0.17-0.46,0.17h-0.01C67.53,97.72,67.36,97.53,67.36,97.17
		 M67.57,99.36l-0.75-0.16v-0.43l1.31-0.15h0.02l0.19,0.15v4.81l0.83,0.07v0.41h-2.46v-0.41l0.84-0.08V99.36z"/>
	<path class="st2" d="M71.03,103.29c0.07,0.11,0.22,0.21,0.44,0.29c0.22,0.08,0.46,0.12,0.72,0.12c0.78,0,1.17-0.29,1.17-0.86
		c0-0.26-0.11-0.47-0.33-0.64c-0.22-0.16-0.59-0.34-1.11-0.54c-0.52-0.19-0.9-0.41-1.13-0.66c-0.24-0.26-0.35-0.6-0.35-1.03
		c0-0.27,0.08-0.51,0.25-0.72c0.17-0.2,0.4-0.36,0.68-0.47c0.29-0.11,0.59-0.17,0.93-0.17c0.33,0,0.6,0.03,0.82,0.09
		c0.22,0.06,0.44,0.13,0.66,0.21v1.14H73.3l-0.17-0.7c-0.05-0.08-0.16-0.15-0.34-0.21s-0.38-0.09-0.6-0.09
		c-0.31,0-0.56,0.07-0.75,0.21c-0.19,0.14-0.29,0.32-0.29,0.55c0,0.21,0.05,0.37,0.14,0.51c0.1,0.13,0.21,0.24,0.35,0.32
		c0.14,0.08,0.34,0.17,0.58,0.27l0.18,0.08c0.36,0.14,0.66,0.27,0.88,0.4c0.22,0.12,0.41,0.29,0.56,0.49
		c0.15,0.2,0.22,0.45,0.22,0.75c0,0.47-0.18,0.85-0.54,1.12c-0.36,0.27-0.84,0.41-1.44,0.41c-0.28,0-0.59-0.04-0.94-0.13
		c-0.35-0.09-0.62-0.18-0.79-0.27v-1.21h0.52L71.03,103.29z"/>
	<path class="st2" d="M79.41,104.05c-0.08-0.06-0.12-0.16-0.12-0.32v-0.37c-0.24,0.21-0.51,0.4-0.83,0.56
		c-0.32,0.16-0.64,0.24-0.96,0.24c-0.58,0-1-0.16-1.24-0.49c-0.25-0.33-0.37-0.86-0.37-1.59v-2.82l-0.57-0.16v-0.36l1.16-0.12h0.01
		l0.17,0.11v3.23c0,0.4,0.03,0.72,0.09,0.94c0.06,0.23,0.16,0.39,0.32,0.5c0.15,0.11,0.38,0.16,0.67,0.16
		c0.28,0,0.55-0.06,0.81-0.18c0.26-0.12,0.48-0.26,0.66-0.43v-3.7l-0.73-0.16v-0.36l1.28-0.12h0.01l0.22,0.11v4.9h0.59l-0.01,0.36
		c-0.03,0.01-0.12,0.03-0.28,0.08c-0.15,0.05-0.33,0.07-0.52,0.07C79.61,104.13,79.49,104.1,79.41,104.05"/>
	<path class="st2" d="M84.38,103.41c0.25-0.12,0.48-0.25,0.68-0.41v-1.7c-0.77,0.01-1.36,0.12-1.76,0.35c-0.4,0.22-0.6,0.52-0.6,0.9
		c0,0.36,0.09,0.63,0.28,0.79c0.19,0.16,0.44,0.24,0.76,0.24C83.92,103.58,84.13,103.53,84.38,103.41 M82.77,101.3
		c0.61-0.28,1.38-0.43,2.29-0.45v-0.3c0-0.33-0.03-0.58-0.1-0.77c-0.07-0.19-0.18-0.32-0.35-0.41c-0.17-0.09-0.4-0.13-0.7-0.13
		c-0.33,0-0.62,0.05-0.89,0.15c-0.27,0.1-0.52,0.22-0.77,0.36l-0.21-0.42c0.07-0.06,0.22-0.15,0.44-0.27
		c0.22-0.11,0.48-0.22,0.77-0.31c0.29-0.09,0.57-0.13,0.83-0.13c0.43,0,0.78,0.06,1.03,0.18c0.25,0.12,0.43,0.32,0.55,0.59
		c0.11,0.27,0.17,0.63,0.17,1.08v3.16h0.6v0.35c-0.35,0.1-0.65,0.14-0.89,0.14c-0.15,0-0.26-0.02-0.32-0.07
		c-0.06-0.05-0.09-0.16-0.09-0.33v-0.36c-0.23,0.2-0.48,0.39-0.75,0.54c-0.27,0.16-0.58,0.23-0.93,0.23c-0.46,0-0.84-0.13-1.15-0.38
		c-0.3-0.25-0.45-0.63-0.45-1.12C81.85,102.02,82.16,101.58,82.77,101.3"/>
	<path class="st2" d="M91.66,97.17c0-0.18,0.05-0.34,0.16-0.46c0.11-0.12,0.26-0.18,0.44-0.18c0.19,0,0.33,0.05,0.41,0.16
		s0.12,0.24,0.12,0.39c0,0.2-0.05,0.35-0.16,0.46s-0.26,0.17-0.46,0.17h-0.01C91.83,97.72,91.66,97.53,91.66,97.17 M91.87,99.36
		l-0.75-0.16v-0.43l1.31-0.15h0.02l0.19,0.15v4.81l0.83,0.07v0.41h-2.46v-0.41l0.84-0.08V99.36z"/>
	<path class="st2" d="M95.34,103.29c0.07,0.11,0.22,0.21,0.44,0.29c0.22,0.08,0.46,0.12,0.72,0.12c0.78,0,1.17-0.29,1.17-0.86
		c0-0.26-0.11-0.47-0.33-0.64c-0.22-0.16-0.59-0.34-1.11-0.54c-0.52-0.19-0.9-0.41-1.13-0.66c-0.24-0.26-0.35-0.6-0.35-1.03
		c0-0.27,0.08-0.51,0.25-0.72c0.17-0.2,0.4-0.36,0.68-0.47c0.28-0.11,0.59-0.17,0.93-0.17c0.33,0,0.6,0.03,0.82,0.09
		c0.22,0.06,0.44,0.13,0.66,0.21v1.14h-0.47l-0.17-0.7c-0.05-0.08-0.16-0.15-0.34-0.21s-0.38-0.09-0.6-0.09
		c-0.31,0-0.56,0.07-0.75,0.21c-0.19,0.14-0.29,0.32-0.29,0.55c0,0.21,0.05,0.37,0.14,0.51c0.1,0.13,0.21,0.24,0.35,0.32
		c0.14,0.08,0.34,0.17,0.58,0.27l0.18,0.08c0.36,0.14,0.66,0.27,0.88,0.4c0.22,0.12,0.41,0.29,0.56,0.49
		c0.15,0.2,0.22,0.45,0.22,0.75c0,0.47-0.18,0.85-0.54,1.12c-0.36,0.27-0.84,0.41-1.44,0.41c-0.28,0-0.59-0.04-0.94-0.13
		c-0.35-0.09-0.61-0.18-0.79-0.27v-1.21h0.52L95.34,103.29z"/>
	<path class="st2" d="M103.14,100.87c0.02-0.13,0.03-0.27,0.03-0.42c-0.01-0.42-0.11-0.76-0.3-1.01c-0.19-0.25-0.49-0.37-0.9-0.37
		c-0.88,0-1.35,0.6-1.43,1.8H103.14z M100.31,103.39c-0.4-0.51-0.6-1.18-0.6-2.03c0-0.54,0.11-1.03,0.32-1.45
		c0.21-0.42,0.5-0.75,0.88-0.98c0.37-0.23,0.79-0.35,1.26-0.35c0.57,0,1.01,0.16,1.33,0.49s0.49,0.8,0.51,1.41
		c0,0.4-0.02,0.68-0.06,0.84h-3.41c0,0.67,0.15,1.22,0.46,1.64c0.3,0.43,0.73,0.64,1.28,0.64c0.27,0,0.54-0.05,0.82-0.14
		c0.28-0.1,0.5-0.21,0.65-0.35l0.15,0.35c-0.19,0.19-0.46,0.35-0.81,0.48c-0.35,0.13-0.71,0.2-1.07,0.2
		C101.28,104.15,100.71,103.9,100.31,103.39"/>
	<path class="st2" d="M109.09,103.36c-0.43-0.51-0.64-1.3-0.64-2.36v-3.56l-0.72-0.11v-0.41h2.35v0.41l-0.83,0.11v3.64
		c0,0.93,0.17,1.6,0.5,1.99c0.34,0.39,0.81,0.58,1.43,0.58c0.61,0,1.08-0.21,1.39-0.63c0.31-0.42,0.47-1.04,0.47-1.86v-3.71
		l-0.8-0.11v-0.41h2.13v0.41l-0.73,0.11v3.68c0,1-0.23,1.75-0.69,2.25c-0.46,0.5-1.08,0.75-1.85,0.75
		C110.19,104.12,109.52,103.87,109.09,103.36"/>
	<path class="st2" d="M115.41,103.64l0.77-0.06v-4.23l-0.74-0.16v-0.43l1.22-0.15h0.02l0.18,0.15v0.15l-0.02,0.73h0.02
		c0.01-0.01,0.1-0.11,0.25-0.29c0.16-0.18,0.39-0.36,0.7-0.52c0.31-0.17,0.62-0.25,0.94-0.25c0.1,0,0.2,0.01,0.29,0.04v0.84
		c-0.03-0.02-0.08-0.04-0.17-0.06c-0.09-0.02-0.18-0.03-0.27-0.03c-0.36,0-0.68,0.05-0.93,0.16c-0.26,0.11-0.49,0.24-0.71,0.4v3.64
		l1.28,0.08v0.39h-2.82V103.64z"/>
	<path class="st2" d="M121.78,99.36c-0.24,0.13-0.43,0.27-0.57,0.42v3.55c0.05,0.1,0.17,0.18,0.38,0.24
		c0.21,0.06,0.44,0.09,0.7,0.09c0.55,0,0.99-0.2,1.32-0.61c0.33-0.41,0.5-1,0.5-1.79c0-0.7-0.15-1.23-0.45-1.58
		c-0.3-0.35-0.67-0.52-1.13-0.52C122.27,99.16,122.02,99.23,121.78,99.36 M119.61,96.35l1.4-0.16h0.02l0.18,0.13v2.92
		c0.2-0.19,0.44-0.34,0.71-0.47c0.28-0.13,0.59-0.19,0.93-0.19c0.38,0,0.72,0.09,1.04,0.28c0.32,0.19,0.57,0.47,0.77,0.86
		c0.2,0.39,0.29,0.88,0.29,1.47c0,0.55-0.11,1.05-0.34,1.5c-0.22,0.45-0.54,0.81-0.96,1.07c-0.42,0.26-0.9,0.39-1.44,0.39
		c-0.4,0-0.77-0.04-1.13-0.12c-0.36-0.08-0.57-0.16-0.65-0.24v-6.99l-0.82-0.09V96.35z"/>
	<path class="st2" d="M128.8,103.41c0.25-0.12,0.48-0.25,0.68-0.41v-1.7c-0.77,0.01-1.36,0.12-1.76,0.35c-0.4,0.22-0.6,0.52-0.6,0.9
		c0,0.36,0.09,0.63,0.28,0.79c0.19,0.16,0.44,0.24,0.76,0.24C128.33,103.58,128.55,103.53,128.8,103.41 M127.19,101.3
		c0.61-0.28,1.38-0.43,2.29-0.45v-0.3c0-0.33-0.03-0.58-0.1-0.77c-0.07-0.19-0.18-0.32-0.35-0.41c-0.17-0.09-0.4-0.13-0.7-0.13
		c-0.33,0-0.62,0.05-0.89,0.15c-0.27,0.1-0.52,0.22-0.77,0.36l-0.21-0.42c0.07-0.06,0.22-0.15,0.44-0.27
		c0.22-0.11,0.48-0.22,0.77-0.31c0.29-0.09,0.57-0.13,0.83-0.13c0.43,0,0.78,0.06,1.03,0.18c0.25,0.12,0.43,0.32,0.55,0.59
		c0.11,0.27,0.17,0.63,0.17,1.08v3.16h0.6v0.35c-0.35,0.1-0.65,0.14-0.89,0.14c-0.15,0-0.26-0.02-0.32-0.07
		c-0.06-0.05-0.09-0.16-0.09-0.33v-0.36c-0.23,0.2-0.48,0.39-0.75,0.54c-0.27,0.16-0.58,0.23-0.93,0.23c-0.46,0-0.84-0.13-1.15-0.38
		c-0.3-0.25-0.45-0.63-0.45-1.12C126.27,102.02,126.57,101.58,127.19,101.3"/>
	<path class="st2" d="M132.54,99.36l-0.74-0.16v-0.43l1.22-0.15h0.03l0.18,0.15v0.42l-0.01,0.24c0.24-0.2,0.55-0.39,0.94-0.57
		s0.75-0.26,1.08-0.26c0.41,0,0.72,0.08,0.94,0.24c0.22,0.16,0.37,0.4,0.46,0.72c0.09,0.32,0.13,0.76,0.13,1.3v2.72l0.72,0.07v0.41
		h-2.14v-0.41l0.64-0.07v-2.72c0-0.4-0.03-0.72-0.08-0.95c-0.05-0.23-0.16-0.4-0.32-0.52c-0.16-0.12-0.39-0.18-0.69-0.18
		c-0.26,0-0.53,0.06-0.83,0.19c-0.3,0.13-0.55,0.28-0.77,0.45v3.72l0.7,0.08v0.41h-2.12v-0.41l0.64-0.08V99.36z"/>
	<path class="st2" d="M139.19,97.17c0-0.18,0.05-0.34,0.16-0.46c0.11-0.12,0.26-0.18,0.44-0.18c0.19,0,0.33,0.05,0.41,0.16
		c0.08,0.11,0.12,0.24,0.12,0.39c0,0.2-0.05,0.35-0.16,0.46s-0.26,0.17-0.46,0.17h-0.01C139.36,97.72,139.19,97.53,139.19,97.17
		 M139.4,99.36l-0.75-0.16v-0.43l1.31-0.15h0.02l0.19,0.15v4.81l0.83,0.07v0.41h-2.46v-0.41l0.84-0.08V99.36z"/>
	<path class="st2" d="M142.86,103.29c0.07,0.11,0.22,0.21,0.44,0.29c0.22,0.08,0.46,0.12,0.72,0.12c0.78,0,1.17-0.29,1.17-0.86
		c0-0.26-0.11-0.47-0.33-0.64c-0.22-0.16-0.59-0.34-1.11-0.54c-0.52-0.19-0.9-0.41-1.13-0.66c-0.24-0.26-0.35-0.6-0.35-1.03
		c0-0.27,0.08-0.51,0.25-0.72c0.17-0.2,0.4-0.36,0.68-0.47c0.29-0.11,0.59-0.17,0.93-0.17c0.33,0,0.6,0.03,0.82,0.09
		c0.22,0.06,0.44,0.13,0.66,0.21v1.14h-0.47l-0.17-0.7c-0.05-0.08-0.16-0.15-0.34-0.21s-0.38-0.09-0.6-0.09
		c-0.31,0-0.56,0.07-0.75,0.21c-0.19,0.14-0.29,0.32-0.29,0.55c0,0.21,0.05,0.37,0.14,0.51c0.1,0.13,0.21,0.24,0.35,0.32
		c0.14,0.08,0.34,0.17,0.58,0.27l0.18,0.08c0.36,0.14,0.66,0.27,0.88,0.4c0.22,0.12,0.41,0.29,0.56,0.49
		c0.15,0.2,0.22,0.45,0.22,0.75c0,0.47-0.18,0.85-0.54,1.12c-0.36,0.27-0.84,0.41-1.44,0.41c-0.28,0-0.59-0.04-0.94-0.13
		c-0.35-0.09-0.61-0.18-0.79-0.27v-1.21h0.52L142.86,103.29z"/>
	<path class="st2" d="M149.8,103.41c0.25-0.12,0.48-0.25,0.68-0.41v-1.7c-0.77,0.01-1.36,0.12-1.76,0.35c-0.4,0.22-0.6,0.52-0.6,0.9
		c0,0.36,0.09,0.63,0.28,0.79c0.19,0.16,0.44,0.24,0.76,0.24C149.34,103.58,149.56,103.53,149.8,103.41 M148.19,101.3
		c0.61-0.28,1.38-0.43,2.29-0.45v-0.3c0-0.33-0.03-0.58-0.1-0.77c-0.07-0.19-0.18-0.32-0.35-0.41c-0.17-0.09-0.4-0.13-0.7-0.13
		c-0.33,0-0.62,0.05-0.89,0.15c-0.27,0.1-0.52,0.22-0.77,0.36l-0.21-0.42c0.07-0.06,0.22-0.15,0.44-0.27
		c0.22-0.11,0.48-0.22,0.77-0.31c0.29-0.09,0.57-0.13,0.83-0.13c0.43,0,0.78,0.06,1.03,0.18c0.25,0.12,0.43,0.32,0.55,0.59
		c0.11,0.27,0.17,0.63,0.17,1.08v3.16h0.6v0.35c-0.35,0.1-0.65,0.14-0.89,0.14c-0.15,0-0.26-0.02-0.32-0.07
		c-0.06-0.05-0.09-0.16-0.09-0.33v-0.36c-0.23,0.2-0.48,0.39-0.75,0.54c-0.27,0.16-0.58,0.23-0.93,0.23c-0.46,0-0.84-0.13-1.15-0.38
		c-0.3-0.25-0.46-0.63-0.46-1.12C147.27,102.02,147.58,101.58,148.19,101.3"/>
	<path class="st2" d="M153.83,103.92c-0.17-0.16-0.26-0.44-0.26-0.84v-3.79h-0.73v-0.37c0.32-0.07,0.51-0.12,0.56-0.15
		c0.1-0.05,0.17-0.15,0.21-0.3c0.04-0.1,0.09-0.27,0.15-0.52c0.06-0.25,0.11-0.44,0.14-0.59h0.44v1.36h1.7v0.57h-1.7v3.11
		c0,0.37,0.01,0.63,0.04,0.78c0.03,0.15,0.08,0.25,0.15,0.29c0.08,0.05,0.21,0.07,0.4,0.07c0.19,0,0.39-0.02,0.62-0.08
		c0.23-0.05,0.4-0.1,0.52-0.16l0.12,0.36c-0.15,0.11-0.39,0.23-0.73,0.33c-0.34,0.11-0.63,0.16-0.88,0.16
		C154.26,104.15,154.01,104.07,153.83,103.92"/>
	<path class="st2" d="M157.82,97.17c0-0.18,0.05-0.34,0.16-0.46c0.11-0.12,0.26-0.18,0.44-0.18c0.19,0,0.33,0.05,0.41,0.16
		c0.08,0.11,0.12,0.24,0.12,0.39c0,0.2-0.05,0.35-0.16,0.46s-0.26,0.17-0.46,0.17h-0.01C158,97.72,157.82,97.53,157.82,97.17
		 M158.03,99.36l-0.75-0.16v-0.43l1.31-0.15h0.02l0.19,0.15v4.81l0.84,0.07v0.41h-2.46v-0.41l0.84-0.08V99.36z"/>
	<path class="st2" d="M164.27,103.09c0.27-0.38,0.4-0.93,0.4-1.65c0-0.69-0.12-1.26-0.37-1.7s-0.64-0.66-1.16-0.66
		c-0.49,0-0.88,0.19-1.15,0.57c-0.27,0.38-0.41,0.93-0.41,1.65c0,0.7,0.13,1.27,0.38,1.7c0.25,0.44,0.64,0.66,1.16,0.66
		C163.62,103.65,164,103.46,164.27,103.09 M161.06,99.88c0.23-0.42,0.54-0.74,0.92-0.97c0.38-0.22,0.78-0.34,1.19-0.34
		c0.81,0,1.4,0.26,1.79,0.79c0.39,0.52,0.58,1.2,0.58,2.01c0,0.56-0.12,1.05-0.35,1.47s-0.54,0.74-0.92,0.97
		c-0.38,0.22-0.78,0.34-1.19,0.34c-0.8,0-1.4-0.26-1.79-0.79c-0.39-0.52-0.58-1.2-0.58-2.01
		C160.71,100.79,160.83,100.3,161.06,99.88"/>
	<path class="st2" d="M167.4,99.36l-0.74-0.16v-0.43l1.22-0.15h0.03l0.18,0.15v0.42l-0.01,0.24c0.24-0.2,0.55-0.39,0.94-0.57
		s0.75-0.26,1.08-0.26c0.41,0,0.72,0.08,0.94,0.24c0.22,0.16,0.37,0.4,0.46,0.72c0.09,0.32,0.13,0.76,0.13,1.3v2.72l0.72,0.07v0.41
		h-2.14v-0.41l0.64-0.07v-2.72c0-0.4-0.03-0.72-0.08-0.95c-0.05-0.23-0.16-0.4-0.32-0.52c-0.16-0.12-0.39-0.18-0.69-0.18
		c-0.26,0-0.53,0.06-0.83,0.19c-0.3,0.13-0.55,0.28-0.77,0.45v3.72l0.7,0.08v0.41h-2.12v-0.41l0.64-0.08V99.36z"/>
	<path class="st1" d="M176.71,97.17c0-0.18,0.05-0.34,0.16-0.46c0.11-0.12,0.26-0.18,0.44-0.18c0.19,0,0.33,0.05,0.41,0.16
		c0.08,0.11,0.12,0.24,0.12,0.39c0,0.2-0.05,0.35-0.16,0.46s-0.26,0.17-0.46,0.17h-0.01C176.88,97.72,176.71,97.53,176.71,97.17
		 M176.92,99.36l-0.75-0.16v-0.43l1.31-0.15h0.02l0.19,0.15v4.81l0.84,0.07v0.41h-2.46v-0.41l0.84-0.08V99.36z"/>
	<path class="st1" d="M180.2,99.36l-0.74-0.16v-0.43l1.22-0.15h0.03l0.18,0.15v0.42l-0.01,0.24c0.24-0.2,0.55-0.39,0.94-0.57
		s0.75-0.26,1.08-0.26c0.41,0,0.72,0.08,0.94,0.24c0.22,0.16,0.37,0.4,0.46,0.72c0.09,0.32,0.13,0.76,0.13,1.3v2.72l0.72,0.07v0.41
		h-2.14v-0.41l0.64-0.07v-2.72c0-0.4-0.03-0.72-0.08-0.95c-0.05-0.23-0.16-0.4-0.32-0.52c-0.16-0.12-0.39-0.18-0.69-0.18
		c-0.26,0-0.53,0.06-0.83,0.19c-0.3,0.13-0.55,0.28-0.77,0.45v3.72l0.7,0.08v0.41h-2.12v-0.41l0.64-0.08V99.36z"/>
	<path class="st1" d="M196.7,99.3h-0.97v-0.38l0.97-0.18v-0.47c0-0.38,0.1-0.74,0.3-1.06s0.46-0.58,0.77-0.77
		c0.32-0.19,0.65-0.29,0.99-0.29c0.21,0,0.38,0.03,0.54,0.08v0.79c-0.05-0.04-0.16-0.08-0.31-0.12c-0.16-0.04-0.34-0.06-0.54-0.06
		c-0.34,0-0.59,0.09-0.74,0.27c-0.15,0.18-0.23,0.48-0.23,0.91v0.72h1.39v0.57h-1.39v4.27l1.09,0.07v0.41h-2.71v-0.41l0.84-0.08
		V99.3z"/>
	<path class="st1" d="M200.07,103.64l0.77-0.06v-4.23l-0.74-0.16v-0.43l1.22-0.15h0.02l0.18,0.15v0.15l-0.02,0.73h0.02
		c0.01-0.01,0.1-0.11,0.25-0.29c0.16-0.18,0.39-0.36,0.7-0.52c0.31-0.17,0.62-0.25,0.94-0.25c0.1,0,0.2,0.01,0.29,0.04v0.84
		c-0.03-0.02-0.08-0.04-0.17-0.06c-0.09-0.02-0.18-0.03-0.27-0.03c-0.36,0-0.68,0.05-0.93,0.16c-0.26,0.11-0.49,0.24-0.71,0.4v3.64
		l1.28,0.08v0.39h-2.82V103.64z"/>
	<path class="st1" d="M205.34,97.17c0-0.18,0.05-0.34,0.16-0.46c0.11-0.12,0.26-0.18,0.44-0.18c0.19,0,0.33,0.05,0.41,0.16
		c0.08,0.11,0.12,0.24,0.12,0.39c0,0.2-0.05,0.35-0.16,0.46s-0.26,0.17-0.46,0.17h-0.01C205.51,97.72,205.34,97.53,205.34,97.17
		 M205.55,99.36l-0.75-0.16v-0.43l1.31-0.15h0.02l0.19,0.15v4.81l0.83,0.07v0.41h-2.46v-0.41l0.84-0.08V99.36z"/>
	<path class="st1" d="M208.42,99.99c0.2-0.43,0.5-0.77,0.9-1.03c0.4-0.26,0.89-0.38,1.46-0.38c0.25,0,0.49,0.03,0.73,0.09
		c0.24,0.06,0.44,0.13,0.61,0.2l-0.04,1.37h-0.48l-0.2-0.92c-0.04-0.19-0.31-0.29-0.82-0.29c-0.5,0-0.9,0.19-1.19,0.58
		c-0.3,0.38-0.45,0.91-0.45,1.57c0,0.79,0.16,1.39,0.48,1.8c0.32,0.41,0.74,0.61,1.25,0.61c0.27,0,0.53-0.05,0.78-0.13
		c0.25-0.09,0.46-0.19,0.63-0.31l0.15,0.32c-0.19,0.19-0.44,0.35-0.77,0.48c-0.33,0.13-0.65,0.2-0.97,0.2
		c-0.51,0-0.94-0.12-1.29-0.36c-0.36-0.24-0.63-0.57-0.81-0.98c-0.18-0.41-0.27-0.88-0.27-1.39
		C208.12,100.9,208.22,100.43,208.42,99.99"/>
	<path class="st1" d="M216.08,103.41c0.25-0.12,0.48-0.25,0.68-0.41v-1.7c-0.77,0.01-1.36,0.12-1.76,0.35
		c-0.4,0.22-0.6,0.52-0.6,0.9c0,0.36,0.09,0.63,0.28,0.79c0.19,0.16,0.44,0.24,0.76,0.24C215.62,103.58,215.83,103.53,216.08,103.41
		 M214.47,101.3c0.61-0.28,1.38-0.43,2.29-0.45v-0.3c0-0.33-0.03-0.58-0.1-0.77c-0.07-0.19-0.18-0.32-0.35-0.41
		c-0.17-0.09-0.4-0.13-0.7-0.13c-0.33,0-0.62,0.05-0.89,0.15c-0.27,0.1-0.52,0.22-0.77,0.36l-0.21-0.42
		c0.07-0.06,0.22-0.15,0.44-0.27c0.22-0.11,0.48-0.22,0.77-0.31c0.29-0.09,0.57-0.13,0.84-0.13c0.43,0,0.78,0.06,1.03,0.18
		c0.25,0.12,0.43,0.32,0.55,0.59c0.11,0.27,0.17,0.63,0.17,1.08v3.16h0.6v0.35c-0.35,0.1-0.65,0.14-0.89,0.14
		c-0.15,0-0.26-0.02-0.32-0.07c-0.06-0.05-0.09-0.16-0.09-0.33v-0.36c-0.23,0.2-0.48,0.39-0.75,0.54c-0.27,0.16-0.58,0.23-0.93,0.23
		c-0.46,0-0.84-0.13-1.15-0.38c-0.3-0.25-0.46-0.63-0.46-1.12C213.55,102.02,213.86,101.58,214.47,101.3"/>
	<polygon class="st2" points="59.46,96.92 61.79,96.92 61.79,97.33 60.91,97.44 62.58,102.06 62.98,103.37 63.35,102.04 
		64.84,97.44 64.08,97.33 64.08,96.92 66.1,96.92 66.1,97.33 65.49,97.44 63.17,104.12 62.54,104.12 60.06,97.44 59.46,97.33 	"/>
	<polygon class="st2" points="88.3,96.79 87.49,96.71 87.49,96.35 88.89,96.19 88.9,96.19 89.08,96.32 89.08,103.57 89.98,103.63 
		89.98,104.05 87.46,104.05 87.46,103.63 88.3,103.56 	"/>
	<path class="st1" d="M191.91,98.33l-0.27-0.91l-0.26,0.94l-1.05,3.17h2.66L191.91,98.33z M191.35,96.85h0.79l2.41,6.7l0.62,0.09
		v0.41h-2.34v-0.41l0.84-0.09l-0.51-1.52h-2.99l-0.51,1.52l0.85,0.1v0.41h-2.16v-0.41l0.61-0.09L191.35,96.85z"/>
</g>
<g>
	<path class="st2" d="M95.49,152.81c1.28,0,2.18-0.29,2.72-0.88c0.54-0.59,0.8-1.55,0.8-2.89c0-1.3-0.24-2.24-0.71-2.82
		c-0.48-0.59-1.33-0.88-2.57-0.88h-1.67v7.47H95.49z M89.6,142.27h5.92c2.59,0,4.53,0.49,5.8,1.47c1.28,0.98,1.91,2.67,1.91,5.06
		c0,1.56-0.23,2.83-0.68,3.81c-0.46,0.98-1.24,1.7-2.35,2.14l3.43,12.12h-4.49l-2.95-11.27h-2.13v11.27H89.6V142.27z"/>
	<path class="st2" d="M117.4,165.06c-1.06-1.43-1.59-3.45-1.59-6.06v-8.78c0-2.69,0.53-4.74,1.58-6.14c1.05-1.4,2.86-2.1,5.44-2.1
		c2.41,0,4.12,0.61,5.13,1.82c1.01,1.21,1.52,2.97,1.52,5.25v2.07h-4.31v-2.13c0-0.87-0.04-1.55-0.12-2.05
		c-0.08-0.5-0.29-0.9-0.62-1.21c-0.34-0.31-0.86-0.47-1.57-0.47c-0.73,0-1.28,0.17-1.64,0.5c-0.36,0.33-0.6,0.78-0.71,1.34
		c-0.11,0.56-0.17,1.28-0.17,2.17v10.66c0,1.4,0.18,2.4,0.55,3.02c0.36,0.62,1.02,0.93,1.97,0.93c0.69,0,1.2-0.16,1.53-0.49
		c0.33-0.32,0.55-0.75,0.64-1.29c0.09-0.54,0.14-1.25,0.14-2.14v-2.22h4.31v1.97c0,2.37-0.5,4.21-1.49,5.51
		c-0.99,1.31-2.71,1.96-5.16,1.96C120.27,167.2,118.47,166.49,117.4,165.06"/>
	<path class="st2" d="M155.87,152.78c1.21,0,2.04-0.26,2.46-0.77c0.42-0.52,0.64-1.44,0.64-2.78c0-0.97-0.07-1.72-0.21-2.23
		c-0.14-0.52-0.43-0.91-0.87-1.17c-0.44-0.26-1.11-0.39-2.02-0.39h-1.73v7.35H155.87z M149.67,142.27h7.23
		c4.19,0,6.29,2.33,6.29,6.99c0,4.45-2.2,6.68-6.59,6.68h-2.46v10.93h-4.46V142.27z"/>
	<path class="st2" d="M175,162.95c0.34-0.63,0.52-1.54,0.52-2.73v-11.33c0-1.2-0.17-2.1-0.5-2.7c-0.33-0.61-1.01-0.91-2.02-0.91
		c-1.01,0-1.69,0.31-2.04,0.93c-0.34,0.62-0.52,1.51-0.52,2.69v11.33c0,1.19,0.17,2.11,0.52,2.73c0.34,0.63,1.02,0.94,2.04,0.94
		C173.99,163.89,174.66,163.58,175,162.95 M167.53,165.15c-1.09-1.37-1.64-3.37-1.64-6v-9.23c0-2.61,0.55-4.59,1.64-5.92
		c1.09-1.34,2.92-2,5.47-2c2.53,0,4.34,0.67,5.44,2c1.09,1.34,1.64,3.31,1.64,5.92v9.23c0,2.61-0.55,4.61-1.66,5.98
		c-1.1,1.38-2.91,2.07-5.42,2.07C170.45,167.2,168.63,166.52,167.53,165.15"/>
	<path class="st2" d="M207.55,165.32c-1.1-1.25-1.71-3.13-1.81-5.62l3.86-0.76c0.06,1.56,0.31,2.75,0.74,3.57
		c0.44,0.82,1.12,1.23,2.05,1.23c0.69,0,1.2-0.21,1.53-0.62c0.33-0.41,0.5-0.98,0.5-1.69c0-0.97-0.22-1.8-0.65-2.48
		c-0.44-0.68-1.12-1.42-2.05-2.23l-3.1-2.7c-0.95-0.81-1.67-1.68-2.14-2.61c-0.48-0.93-0.71-2.05-0.71-3.34
		c0-1.92,0.56-3.42,1.69-4.48c1.12-1.06,2.68-1.6,4.66-1.6c2.13,0,3.65,0.6,4.57,1.81c0.92,1.21,1.45,2.83,1.59,4.88l-3.86,0.67
		c-0.06-1.34-0.25-2.34-0.56-3.02c-0.31-0.68-0.93-1.02-1.84-1.02c-0.65,0-1.15,0.22-1.52,0.65c-0.36,0.44-0.55,0.99-0.55,1.66
		c0,0.79,0.16,1.45,0.47,1.99c0.31,0.54,0.82,1.11,1.53,1.72l3.07,2.7c1.15,0.99,2.06,2.05,2.7,3.19c0.65,1.13,0.97,2.45,0.97,3.95
		c0,1.17-0.26,2.22-0.77,3.13c-0.52,0.91-1.24,1.62-2.17,2.14c-0.93,0.52-2,0.77-3.22,0.77
		C210.32,167.2,208.65,166.58,207.55,165.32"/>
	<g>
		<path class="st0" d="M43.37,167.25c0,0.98-0.79,1.77-1.77,1.77c-0.97,0-1.77-0.79-1.77-1.77c0-0.98,0.79-1.77,1.77-1.77
			C42.58,165.49,43.37,166.28,43.37,167.25"/>
		<path class="st0" d="M37.22,155.98c0,0.98-0.79,1.77-1.77,1.77c-0.97,0-1.77-0.79-1.77-1.77c0-0.98,0.79-1.77,1.77-1.77
			C36.43,154.21,37.22,155,37.22,155.98"/>
		<path class="st0" d="M35.17,138.81c0,0.98-0.79,1.77-1.77,1.77c-0.97,0-1.77-0.79-1.77-1.77c0-0.98,0.79-1.77,1.77-1.77
			C34.38,137.05,35.17,137.84,35.17,138.81"/>
		<path class="st0" d="M27.38,159.44c0,2.12-1.72,3.84-3.84,3.84c-2.12,0-3.84-1.72-3.84-3.84c0-2.12,1.72-3.84,3.84-3.84
			C25.66,155.6,27.38,157.32,27.38,159.44"/>
		<path class="st0" d="M39.17,186.73c0,2.05-1.66,3.72-3.72,3.72s-3.72-1.66-3.72-3.72c0-2.05,1.66-3.71,3.72-3.71
			S39.17,184.67,39.17,186.73"/>
		<path class="st0" d="M25.31,151.91c0,0.98-0.79,1.77-1.77,1.77c-0.97,0-1.77-0.79-1.77-1.77c0-0.98,0.79-1.77,1.77-1.77
			C24.52,150.14,25.31,150.93,25.31,151.91"/>
		<path class="st0" d="M44.52,149.7c0,0.98-0.79,1.77-1.77,1.77c-0.97,0-1.77-0.79-1.77-1.77c0-0.98,0.79-1.77,1.77-1.77
			C43.73,147.94,44.52,148.73,44.52,149.7"/>
		<path class="st0" d="M43.11,140.1c0,0.98-0.79,1.77-1.77,1.77c-0.97,0-1.77-0.79-1.77-1.77c0-0.98,0.79-1.77,1.77-1.77
			C42.32,138.33,43.11,139.12,43.11,140.1"/>
		<path class="st0" d="M26.2,134.2c0,0.98-0.79,1.77-1.77,1.77c-0.97,0-1.77-0.79-1.77-1.77c0-0.98,0.79-1.77,1.77-1.77
			C25.41,132.44,26.2,133.23,26.2,134.2"/>
		<path class="st0" d="M28.25,165.72c0,0.98-0.79,1.77-1.77,1.77c-0.97,0-1.77-0.79-1.77-1.77c0-0.98,0.79-1.77,1.77-1.77
			C27.46,163.95,28.25,164.74,28.25,165.72"/>
		<path class="st0" d="M52.85,158.29c0,0.98-0.79,1.77-1.77,1.77c-0.97,0-1.77-0.79-1.77-1.77c0-0.98,0.79-1.77,1.77-1.77
			C52.06,156.52,52.85,157.31,52.85,158.29"/>
		<path class="st0" d="M48.65,161.36c0,2.05-1.66,3.72-3.72,3.72s-3.72-1.66-3.72-3.72c0-2.05,1.66-3.71,3.72-3.71
			S48.65,159.31,48.65,161.36"/>
		<path class="st0" d="M14.88,148.78c0,0.98-0.79,1.77-1.77,1.77c-0.97,0-1.77-0.79-1.77-1.77c0-0.98,0.79-1.77,1.77-1.77
			C14.09,147.01,14.88,147.8,14.88,148.78"/>
		<path class="st0" d="M11.86,158.29c0,0.98-0.79,1.77-1.77,1.77c-0.97,0-1.77-0.79-1.77-1.77c0-0.98,0.79-1.77,1.77-1.77
			C11.07,156.52,11.86,157.31,11.86,158.29"/>
		<path class="st0" d="M7.76,148.58c0,0.98-0.79,1.77-1.77,1.77c-0.97,0-1.77-0.79-1.77-1.77c0-0.98,0.79-1.77,1.77-1.77
			C6.97,146.81,7.76,147.6,7.76,148.58"/>
		<path class="st0" d="M19.06,153.14c0,0.98-0.79,1.77-1.77,1.77c-0.97,0-1.77-0.79-1.77-1.77c0-0.98,0.79-1.77,1.77-1.77
			C18.27,151.37,19.06,152.16,19.06,153.14"/>
		<path class="st0" d="M33.63,151.37c0,0.98-0.79,1.77-1.77,1.77c-0.97,0-1.77-0.79-1.77-1.77c0-0.98,0.79-1.77,1.77-1.77
			C32.84,149.6,33.63,150.39,33.63,151.37"/>
		<path class="st0" d="M42.73,155.08c0,0.98-0.79,1.77-1.77,1.77c-0.97,0-1.77-0.79-1.77-1.77c0-0.98,0.79-1.77,1.77-1.77
			C41.94,153.32,42.73,154.11,42.73,155.08"/>
		<path class="st0" d="M33.25,159.44c0,0.98-0.79,1.77-1.77,1.77c-0.97,0-1.77-0.79-1.77-1.77c0-0.98,0.79-1.77,1.77-1.77
			C32.46,157.67,33.25,158.46,33.25,159.44"/>
		<path class="st0" d="M54.26,153.03c0,0.98-0.79,1.77-1.77,1.77c-0.97,0-1.77-0.79-1.77-1.77c0-0.98,0.79-1.77,1.77-1.77
			C53.47,151.27,54.26,152.06,54.26,153.03"/>
		<path class="st0" d="M25.18,145.99c0,0.98-0.79,1.77-1.77,1.77c-0.97,0-1.77-0.79-1.77-1.77c0-0.98,0.79-1.77,1.77-1.77
			C24.39,144.22,25.18,145.01,25.18,145.99"/>
		<path class="st0" d="M28.77,138.81c0,0.98-0.79,1.77-1.77,1.77c-0.97,0-1.77-0.79-1.77-1.77c0-0.98,0.79-1.77,1.77-1.77
			C27.98,137.05,28.77,137.84,28.77,138.81"/>
		<path class="st0" d="M43.11,181.35c0,0.98-0.79,1.77-1.77,1.77c-0.97,0-1.77-0.79-1.77-1.77c0-0.98,0.79-1.77,1.77-1.77
			C42.32,179.58,43.11,180.37,43.11,181.35"/>
		<path class="st0" d="M29.79,178.78c0,0.98-0.79,1.77-1.77,1.77c-0.97,0-1.77-0.79-1.77-1.77c0-0.98,0.79-1.77,1.77-1.77
			C29,177.02,29.79,177.81,29.79,178.78"/>
		<path class="st0" d="M36.2,169.05c0,0.98-0.79,1.77-1.77,1.77c-0.97,0-1.77-0.79-1.77-1.77c0-0.98,0.79-1.77,1.77-1.77
			C35.41,167.28,36.2,168.07,36.2,169.05"/>
		<path class="st0" d="M19.7,141.89c0,2.05-1.66,3.72-3.72,3.72s-3.72-1.66-3.72-3.72c0-2.05,1.66-3.71,3.72-3.71
			S19.7,139.84,19.7,141.89"/>
		<path class="st1" d="M32,172.12c0,2.05-1.66,3.72-3.72,3.72s-3.72-1.66-3.72-3.72c0-2.05,1.66-3.71,3.72-3.71S32,170.07,32,172.12
			"/>
		<path class="st1" d="M40.45,144.71c0,2.05-1.66,3.72-3.72,3.72s-3.72-1.66-3.72-3.72c0-2.05,1.66-3.71,3.72-3.71
			S40.45,142.66,40.45,144.71"/>
		<path class="st1" d="M43.27,174.17c0,2.05-1.66,3.72-3.72,3.72s-3.72-1.66-3.72-3.72c0-2.05,1.66-3.71,3.72-3.71
			S43.27,172.12,43.27,174.17"/>
		<path class="st1" d="M38.5,164.95c0,0.98-0.79,1.77-1.77,1.77c-0.97,0-1.77-0.79-1.77-1.77c0-0.98,0.79-1.77,1.77-1.77
			C37.71,163.18,38.5,163.97,38.5,164.95"/>
		<path class="st1" d="M46.7,170.84c0,0.98-0.79,1.77-1.77,1.77c-0.97,0-1.77-0.79-1.77-1.77c0-0.98,0.79-1.77,1.77-1.77
			C45.91,169.07,46.7,169.86,46.7,170.84"/>
		<path class="st1" d="M5.96,153.67c0,0.98-0.79,1.77-1.77,1.77c-0.97,0-1.77-0.79-1.77-1.77c0-0.98,0.79-1.77,1.77-1.77
			C5.17,151.91,5.96,152.7,5.96,153.67"/>
		<path class="st1" d="M14.16,137.02c0,0.98-0.79,1.77-1.77,1.77c-0.97,0-1.77-0.79-1.77-1.77c0-0.98,0.79-1.77,1.77-1.77
			C13.37,135.25,14.16,136.04,14.16,137.02"/>
		<path class="st1" d="M17.75,157.77c0,0.98-0.79,1.77-1.77,1.77c-0.97,0-1.77-0.79-1.77-1.77c0-0.98,0.79-1.77,1.77-1.77
			C16.96,156.01,17.75,156.8,17.75,157.77"/>
		<path class="st1" d="M11.34,144.42c0,0.98-0.79,1.77-1.77,1.77c-0.97,0-1.77-0.79-1.77-1.77c0-0.98,0.79-1.77,1.77-1.77
			C10.55,142.66,11.34,143.45,11.34,144.42"/>
		<path class="st1" d="M29.79,147.75c0,0.98-0.79,1.77-1.77,1.77c-0.97,0-1.77-0.79-1.77-1.77c0-0.98,0.79-1.77,1.77-1.77
			C29,145.99,29.79,146.78,29.79,147.75"/>
		<path class="st1" d="M39.27,151.37c0,0.98-0.79,1.77-1.77,1.77c-0.97,0-1.77-0.79-1.77-1.77c0-0.98,0.79-1.77,1.77-1.77
			C38.48,149.6,39.27,150.39,39.27,151.37"/>
		<path class="st1" d="M44.91,144.96c0,0.98-0.79,1.77-1.77,1.77c-0.97,0-1.77-0.79-1.77-1.77c0-0.98,0.79-1.77,1.77-1.77
			C44.12,143.2,44.91,143.99,44.91,144.96"/>
		<path class="st1" d="M30.17,154.93c0.08,0.97-0.64,1.83-1.61,1.91c-0.97,0.08-1.83-0.64-1.91-1.61c-0.08-0.97,0.64-1.83,1.61-1.91
			C29.23,153.24,30.09,153.96,30.17,154.93"/>
		<path class="st1" d="M11.86,153.16c0,0.98-0.79,1.77-1.77,1.77c-0.97,0-1.77-0.79-1.77-1.77c0-0.98,0.79-1.77,1.77-1.77
			C11.07,151.4,11.86,152.19,11.86,153.16"/>
		<path class="st1" d="M20.82,148.81c0,0.98-0.79,1.77-1.77,1.77c-0.97,0-1.77-0.79-1.77-1.77c0-0.98,0.79-1.77,1.77-1.77
			C20.03,147.04,20.82,147.83,20.82,148.81"/>
		<path class="st1" d="M30.92,142.76c0,0.98-0.79,1.77-1.77,1.77c-0.97,0-1.77-0.79-1.77-1.77c0-0.98,0.79-1.77,1.77-1.77
			C30.13,140.99,30.92,141.78,30.92,142.76"/>
		<path class="st1" d="M24.16,140.86c0,0.98-0.79,1.77-1.77,1.77c-0.97,0-1.77-0.79-1.77-1.77c0-0.98,0.79-1.77,1.77-1.77
			C23.36,139.1,24.16,139.89,24.16,140.86"/>
		<path class="st1" d="M48.5,153.67c0,0.98-0.79,1.77-1.77,1.77c-0.97,0-1.77-0.79-1.77-1.77c0-0.98,0.79-1.77,1.77-1.77
			C47.7,151.91,48.5,152.7,48.5,153.67"/>
		<path class="st1" d="M21.34,136.25c0,0.98-0.79,1.77-1.77,1.77c-0.97,0-1.77-0.79-1.77-1.77c0-0.98,0.79-1.77,1.77-1.77
			C20.55,134.49,21.34,135.28,21.34,136.25"/>
		<path class="st1" d="M37.73,180.06c0,0.98-0.79,1.77-1.77,1.77c-0.97,0-1.77-0.79-1.77-1.77c0-0.98,0.79-1.77,1.77-1.77
			C36.94,178.3,37.73,179.09,37.73,180.06"/>
		<path class="st1" d="M32.87,182.37c0,0.98-0.79,1.77-1.77,1.77c-0.97,0-1.77-0.79-1.77-1.77c0-0.98,0.79-1.77,1.77-1.77
			C32.08,180.6,32.87,181.39,32.87,182.37"/>
		<path class="st1" d="M34.15,176.99c0,0.98-0.79,1.77-1.77,1.77c-0.97,0-1.77-0.79-1.77-1.77c0-0.98,0.79-1.77,1.77-1.77
			C33.36,175.22,34.15,176.01,34.15,176.99"/>
		<path class="st1" d="M33.38,164.95c0,0.98-0.79,1.77-1.77,1.77c-0.97,0-1.77-0.79-1.77-1.77c0-0.98,0.79-1.77,1.77-1.77
			C32.59,163.18,33.38,163.97,33.38,164.95"/>
		<path class="st1" d="M40.3,160.34c0,0.98-0.79,1.77-1.77,1.77c-0.97,0-1.77-0.79-1.77-1.77c0-0.98,0.79-1.77,1.77-1.77
			C39.51,158.57,40.3,159.36,40.3,160.34"/>
		<path class="st2" d="M67.36,173.9c0-0.18,0.05-0.34,0.16-0.46c0.11-0.12,0.26-0.18,0.44-0.18c0.19,0,0.33,0.05,0.41,0.16
			c0.08,0.11,0.12,0.24,0.12,0.39c0,0.2-0.05,0.35-0.16,0.46s-0.26,0.17-0.46,0.17h-0.01C67.53,174.45,67.36,174.26,67.36,173.9
			 M67.57,176.09l-0.75-0.16v-0.43l1.31-0.15h0.02l0.19,0.15v4.81l0.83,0.07v0.41h-2.46v-0.41l0.84-0.08V176.09z"/>
		<path class="st2" d="M71.03,180.02c0.07,0.11,0.22,0.21,0.44,0.29c0.22,0.08,0.46,0.12,0.72,0.12c0.78,0,1.17-0.29,1.17-0.86
			c0-0.26-0.11-0.47-0.33-0.64c-0.22-0.16-0.59-0.34-1.11-0.54c-0.52-0.19-0.9-0.41-1.13-0.66c-0.24-0.26-0.35-0.6-0.35-1.03
			c0-0.27,0.08-0.51,0.25-0.72c0.17-0.2,0.4-0.36,0.68-0.47c0.29-0.11,0.59-0.17,0.93-0.17c0.33,0,0.6,0.03,0.82,0.09
			c0.22,0.06,0.44,0.13,0.66,0.21v1.14H73.3l-0.17-0.7c-0.05-0.08-0.16-0.15-0.34-0.21s-0.38-0.09-0.6-0.09
			c-0.31,0-0.56,0.07-0.75,0.21c-0.19,0.14-0.29,0.32-0.29,0.55c0,0.21,0.05,0.37,0.14,0.51c0.1,0.13,0.21,0.24,0.35,0.32
			c0.14,0.08,0.34,0.17,0.58,0.27l0.18,0.08c0.36,0.14,0.66,0.27,0.88,0.4c0.22,0.12,0.41,0.29,0.56,0.49
			c0.15,0.2,0.22,0.45,0.22,0.75c0,0.47-0.18,0.85-0.54,1.12c-0.36,0.27-0.84,0.41-1.44,0.41c-0.28,0-0.59-0.04-0.94-0.13
			c-0.35-0.09-0.62-0.18-0.79-0.27v-1.21h0.52L71.03,180.02z"/>
		<path class="st2" d="M79.41,180.78c-0.08-0.06-0.12-0.16-0.12-0.32v-0.37c-0.24,0.21-0.51,0.4-0.83,0.56
			c-0.32,0.16-0.64,0.24-0.96,0.24c-0.58,0-1-0.16-1.24-0.49c-0.25-0.33-0.37-0.86-0.37-1.59v-2.82l-0.57-0.16v-0.36l1.16-0.12h0.01
			l0.17,0.11v3.23c0,0.4,0.03,0.72,0.09,0.94c0.06,0.23,0.16,0.39,0.32,0.5c0.15,0.11,0.38,0.16,0.67,0.16
			c0.28,0,0.55-0.06,0.81-0.18c0.26-0.12,0.48-0.26,0.66-0.43v-3.7l-0.73-0.16v-0.36l1.28-0.12h0.01l0.22,0.11v4.9h0.59l-0.01,0.36
			c-0.03,0.01-0.12,0.03-0.28,0.08c-0.15,0.05-0.33,0.07-0.52,0.07C79.61,180.86,79.49,180.84,79.41,180.78"/>
		<path class="st2" d="M84.38,180.14c0.25-0.12,0.48-0.25,0.68-0.41v-1.7c-0.77,0.01-1.36,0.12-1.76,0.35
			c-0.4,0.22-0.6,0.52-0.6,0.9c0,0.36,0.09,0.63,0.28,0.79c0.19,0.16,0.44,0.24,0.76,0.24C83.92,180.32,84.13,180.26,84.38,180.14
			 M82.77,178.03c0.61-0.28,1.38-0.43,2.29-0.45v-0.3c0-0.33-0.03-0.58-0.1-0.77c-0.07-0.19-0.18-0.32-0.35-0.41
			c-0.17-0.09-0.4-0.13-0.7-0.13c-0.33,0-0.62,0.05-0.89,0.15c-0.27,0.1-0.52,0.22-0.77,0.36l-0.21-0.42
			c0.07-0.06,0.22-0.15,0.44-0.27c0.22-0.11,0.48-0.22,0.77-0.31c0.29-0.09,0.57-0.13,0.83-0.13c0.43,0,0.78,0.06,1.03,0.18
			c0.25,0.12,0.43,0.32,0.55,0.59c0.11,0.27,0.17,0.63,0.17,1.08v3.16h0.6v0.35c-0.35,0.1-0.65,0.14-0.89,0.14
			c-0.15,0-0.26-0.02-0.32-0.07c-0.06-0.05-0.09-0.16-0.09-0.33v-0.36c-0.23,0.2-0.48,0.39-0.75,0.54
			c-0.27,0.16-0.58,0.23-0.93,0.23c-0.46,0-0.84-0.13-1.15-0.38c-0.3-0.25-0.45-0.63-0.45-1.12
			C81.85,178.76,82.16,178.31,82.77,178.03"/>
		<path class="st2" d="M91.66,173.9c0-0.18,0.05-0.34,0.16-0.46c0.11-0.12,0.26-0.18,0.44-0.18c0.19,0,0.33,0.05,0.41,0.16
			s0.12,0.24,0.12,0.39c0,0.2-0.05,0.35-0.16,0.46s-0.26,0.17-0.46,0.17h-0.01C91.83,174.45,91.66,174.26,91.66,173.9 M91.87,176.09
			l-0.75-0.16v-0.43l1.31-0.15h0.02l0.19,0.15v4.81l0.83,0.07v0.41h-2.46v-0.41l0.84-0.08V176.09z"/>
		<path class="st2" d="M95.34,180.02c0.07,0.11,0.22,0.21,0.44,0.29c0.22,0.08,0.46,0.12,0.72,0.12c0.78,0,1.17-0.29,1.17-0.86
			c0-0.26-0.11-0.47-0.33-0.64c-0.22-0.16-0.59-0.34-1.11-0.54c-0.52-0.19-0.9-0.41-1.13-0.66c-0.24-0.26-0.35-0.6-0.35-1.03
			c0-0.27,0.08-0.51,0.25-0.72c0.17-0.2,0.4-0.36,0.68-0.47c0.28-0.11,0.59-0.17,0.93-0.17c0.33,0,0.6,0.03,0.82,0.09
			c0.22,0.06,0.44,0.13,0.66,0.21v1.14h-0.47l-0.17-0.7c-0.05-0.08-0.16-0.15-0.34-0.21s-0.38-0.09-0.6-0.09
			c-0.31,0-0.56,0.07-0.75,0.21c-0.19,0.14-0.29,0.32-0.29,0.55c0,0.21,0.05,0.37,0.14,0.51c0.1,0.13,0.21,0.24,0.35,0.32
			c0.14,0.08,0.34,0.17,0.58,0.27l0.18,0.08c0.36,0.14,0.66,0.27,0.88,0.4c0.22,0.12,0.41,0.29,0.56,0.49
			c0.15,0.2,0.22,0.45,0.22,0.75c0,0.47-0.18,0.85-0.54,1.12c-0.36,0.27-0.84,0.41-1.44,0.41c-0.28,0-0.59-0.04-0.94-0.13
			c-0.35-0.09-0.61-0.18-0.79-0.27v-1.21h0.52L95.34,180.02z"/>
		<path class="st2" d="M103.14,177.6c0.02-0.13,0.03-0.27,0.03-0.42c-0.01-0.42-0.11-0.76-0.3-1.01c-0.19-0.25-0.49-0.37-0.9-0.37
			c-0.88,0-1.35,0.6-1.43,1.8H103.14z M100.31,180.12c-0.4-0.51-0.6-1.18-0.6-2.03c0-0.54,0.11-1.03,0.32-1.45
			c0.21-0.42,0.5-0.75,0.88-0.98c0.37-0.23,0.79-0.35,1.26-0.35c0.57,0,1.01,0.16,1.33,0.49s0.49,0.8,0.51,1.41
			c0,0.4-0.02,0.68-0.06,0.84h-3.41c0,0.67,0.15,1.22,0.46,1.64c0.3,0.43,0.73,0.64,1.28,0.64c0.27,0,0.54-0.05,0.82-0.14
			c0.28-0.1,0.5-0.21,0.65-0.35l0.15,0.35c-0.19,0.19-0.46,0.35-0.81,0.48c-0.35,0.13-0.71,0.2-1.07,0.2
			C101.28,180.88,100.71,180.63,100.31,180.12"/>
		<path class="st2" d="M109.09,180.09c-0.43-0.51-0.64-1.3-0.64-2.36v-3.56l-0.72-0.11v-0.41h2.35v0.41l-0.83,0.11v3.64
			c0,0.93,0.17,1.6,0.5,1.99c0.34,0.39,0.81,0.58,1.43,0.58c0.61,0,1.08-0.21,1.39-0.63c0.31-0.42,0.47-1.04,0.47-1.86v-3.71
			l-0.8-0.11v-0.41h2.13v0.41l-0.73,0.11v3.68c0,1-0.23,1.75-0.69,2.25c-0.46,0.5-1.08,0.75-1.85,0.75
			C110.19,180.85,109.52,180.6,109.09,180.09"/>
		<path class="st2" d="M115.41,180.37l0.77-0.06v-4.23l-0.74-0.16v-0.43l1.22-0.15h0.02l0.18,0.15v0.15l-0.02,0.73h0.02
			c0.01-0.01,0.1-0.11,0.25-0.29c0.16-0.18,0.39-0.36,0.7-0.52c0.31-0.17,0.62-0.25,0.94-0.25c0.1,0,0.2,0.01,0.29,0.04v0.84
			c-0.03-0.02-0.08-0.04-0.17-0.06c-0.09-0.02-0.18-0.03-0.27-0.03c-0.36,0-0.68,0.05-0.93,0.16c-0.26,0.11-0.49,0.24-0.71,0.4v3.64
			l1.28,0.08v0.39h-2.82V180.37z"/>
		<path class="st2" d="M121.78,176.09c-0.24,0.13-0.43,0.27-0.57,0.42v3.55c0.05,0.1,0.17,0.18,0.38,0.24
			c0.21,0.06,0.44,0.09,0.7,0.09c0.55,0,0.99-0.2,1.32-0.61c0.33-0.41,0.5-1,0.5-1.79c0-0.7-0.15-1.23-0.45-1.58
			c-0.3-0.35-0.67-0.52-1.13-0.52C122.27,175.9,122.02,175.96,121.78,176.09 M119.61,173.08l1.4-0.16h0.02l0.18,0.13v2.92
			c0.2-0.19,0.44-0.34,0.71-0.47c0.28-0.13,0.59-0.19,0.93-0.19c0.38,0,0.72,0.09,1.04,0.28c0.32,0.19,0.57,0.47,0.77,0.86
			c0.2,0.39,0.29,0.88,0.29,1.47c0,0.55-0.11,1.05-0.34,1.5c-0.22,0.45-0.54,0.81-0.96,1.07c-0.42,0.26-0.9,0.39-1.44,0.39
			c-0.4,0-0.77-0.04-1.13-0.12c-0.36-0.08-0.57-0.16-0.65-0.24v-6.99l-0.82-0.09V173.08z"/>
		<path class="st2" d="M128.8,180.14c0.25-0.12,0.48-0.25,0.68-0.41v-1.7c-0.77,0.01-1.36,0.12-1.76,0.35
			c-0.4,0.22-0.6,0.52-0.6,0.9c0,0.36,0.09,0.63,0.28,0.79c0.19,0.16,0.44,0.24,0.76,0.24C128.33,180.32,128.55,180.26,128.8,180.14
			 M127.19,178.03c0.61-0.28,1.38-0.43,2.29-0.45v-0.3c0-0.33-0.03-0.58-0.1-0.77c-0.07-0.19-0.18-0.32-0.35-0.41
			c-0.17-0.09-0.4-0.13-0.7-0.13c-0.33,0-0.62,0.05-0.89,0.15c-0.27,0.1-0.52,0.22-0.77,0.36l-0.21-0.42
			c0.07-0.06,0.22-0.15,0.44-0.27c0.22-0.11,0.48-0.22,0.77-0.31c0.29-0.09,0.57-0.13,0.83-0.13c0.43,0,0.78,0.06,1.03,0.18
			c0.25,0.12,0.43,0.32,0.55,0.59c0.11,0.27,0.17,0.63,0.17,1.08v3.16h0.6v0.35c-0.35,0.1-0.65,0.14-0.89,0.14
			c-0.15,0-0.26-0.02-0.32-0.07c-0.06-0.05-0.09-0.16-0.09-0.33v-0.36c-0.23,0.2-0.48,0.39-0.75,0.54
			c-0.27,0.16-0.58,0.23-0.93,0.23c-0.46,0-0.84-0.13-1.15-0.38c-0.3-0.25-0.45-0.63-0.45-1.12
			C126.27,178.76,126.57,178.31,127.19,178.03"/>
		<path class="st2" d="M132.54,176.09l-0.74-0.16v-0.43l1.22-0.15h0.03l0.18,0.15v0.42l-0.01,0.24c0.24-0.2,0.55-0.39,0.94-0.57
			s0.75-0.26,1.08-0.26c0.41,0,0.72,0.08,0.94,0.24c0.22,0.16,0.37,0.4,0.46,0.72c0.09,0.32,0.13,0.76,0.13,1.3v2.72l0.72,0.07v0.41
			h-2.14v-0.41l0.64-0.07v-2.72c0-0.4-0.03-0.72-0.08-0.95c-0.05-0.23-0.16-0.4-0.32-0.52c-0.16-0.12-0.39-0.18-0.69-0.18
			c-0.26,0-0.53,0.06-0.83,0.19c-0.3,0.13-0.55,0.28-0.77,0.45v3.72l0.7,0.08v0.41h-2.12v-0.41l0.64-0.08V176.09z"/>
		<path class="st2" d="M139.19,173.9c0-0.18,0.05-0.34,0.16-0.46c0.11-0.12,0.26-0.18,0.44-0.18c0.19,0,0.33,0.05,0.41,0.16
			c0.08,0.11,0.12,0.24,0.12,0.39c0,0.2-0.05,0.35-0.16,0.46s-0.26,0.17-0.46,0.17h-0.01C139.36,174.45,139.19,174.26,139.19,173.9
			 M139.4,176.09l-0.75-0.16v-0.43l1.31-0.15h0.02l0.19,0.15v4.81l0.83,0.07v0.41h-2.46v-0.41l0.84-0.08V176.09z"/>
		<path class="st2" d="M142.86,180.02c0.07,0.11,0.22,0.21,0.44,0.29c0.22,0.08,0.46,0.12,0.72,0.12c0.78,0,1.17-0.29,1.17-0.86
			c0-0.26-0.11-0.47-0.33-0.64c-0.22-0.16-0.59-0.34-1.11-0.54c-0.52-0.19-0.9-0.41-1.13-0.66c-0.24-0.26-0.35-0.6-0.35-1.03
			c0-0.27,0.08-0.51,0.25-0.72c0.17-0.2,0.4-0.36,0.68-0.47c0.29-0.11,0.59-0.17,0.93-0.17c0.33,0,0.6,0.03,0.82,0.09
			c0.22,0.06,0.44,0.13,0.66,0.21v1.14h-0.47l-0.17-0.7c-0.05-0.08-0.16-0.15-0.34-0.21s-0.38-0.09-0.6-0.09
			c-0.31,0-0.56,0.07-0.75,0.21c-0.19,0.14-0.29,0.32-0.29,0.55c0,0.21,0.05,0.37,0.14,0.51c0.1,0.13,0.21,0.24,0.35,0.32
			c0.14,0.08,0.34,0.17,0.58,0.27l0.18,0.08c0.36,0.14,0.66,0.27,0.88,0.4c0.22,0.12,0.41,0.29,0.56,0.49
			c0.15,0.2,0.22,0.45,0.22,0.75c0,0.47-0.18,0.85-0.54,1.12c-0.36,0.27-0.84,0.41-1.44,0.41c-0.28,0-0.59-0.04-0.94-0.13
			c-0.35-0.09-0.61-0.18-0.79-0.27v-1.21h0.52L142.86,180.02z"/>
		<path class="st2" d="M149.8,180.14c0.25-0.12,0.48-0.25,0.68-0.41v-1.7c-0.77,0.01-1.36,0.12-1.76,0.35
			c-0.4,0.22-0.6,0.52-0.6,0.9c0,0.36,0.09,0.63,0.28,0.79c0.19,0.16,0.44,0.24,0.76,0.24C149.34,180.32,149.56,180.26,149.8,180.14
			 M148.19,178.03c0.61-0.28,1.38-0.43,2.29-0.45v-0.3c0-0.33-0.03-0.58-0.1-0.77c-0.07-0.19-0.18-0.32-0.35-0.41
			c-0.17-0.09-0.4-0.13-0.7-0.13c-0.33,0-0.62,0.05-0.89,0.15c-0.27,0.1-0.52,0.22-0.77,0.36l-0.21-0.42
			c0.07-0.06,0.22-0.15,0.44-0.27c0.22-0.11,0.48-0.22,0.77-0.31c0.29-0.09,0.57-0.13,0.83-0.13c0.43,0,0.78,0.06,1.03,0.18
			c0.25,0.12,0.43,0.32,0.55,0.59c0.11,0.27,0.17,0.63,0.17,1.08v3.16h0.6v0.35c-0.35,0.1-0.65,0.14-0.89,0.14
			c-0.15,0-0.26-0.02-0.32-0.07c-0.06-0.05-0.09-0.16-0.09-0.33v-0.36c-0.23,0.2-0.48,0.39-0.75,0.54
			c-0.27,0.16-0.58,0.23-0.93,0.23c-0.46,0-0.84-0.13-1.15-0.38c-0.3-0.25-0.46-0.63-0.46-1.12
			C147.27,178.76,147.58,178.31,148.19,178.03"/>
		<path class="st2" d="M153.83,180.65c-0.17-0.16-0.26-0.44-0.26-0.84v-3.79h-0.73v-0.37c0.32-0.07,0.51-0.12,0.56-0.15
			c0.1-0.05,0.17-0.15,0.21-0.3c0.04-0.1,0.09-0.27,0.15-0.52c0.06-0.25,0.11-0.44,0.14-0.59h0.44v1.36h1.7v0.57h-1.7v3.11
			c0,0.37,0.01,0.63,0.04,0.78c0.03,0.15,0.08,0.25,0.15,0.29c0.08,0.05,0.21,0.07,0.4,0.07c0.19,0,0.39-0.02,0.62-0.08
			c0.23-0.05,0.4-0.1,0.52-0.16l0.12,0.36c-0.15,0.11-0.39,0.23-0.73,0.33c-0.34,0.11-0.63,0.16-0.88,0.16
			C154.26,180.88,154.01,180.8,153.83,180.65"/>
		<path class="st2" d="M157.82,173.9c0-0.18,0.05-0.34,0.16-0.46c0.11-0.12,0.26-0.18,0.44-0.18c0.19,0,0.33,0.05,0.41,0.16
			c0.08,0.11,0.12,0.24,0.12,0.39c0,0.2-0.05,0.35-0.16,0.46s-0.26,0.17-0.46,0.17h-0.01C158,174.45,157.82,174.26,157.82,173.9
			 M158.03,176.09l-0.75-0.16v-0.43l1.31-0.15h0.02l0.19,0.15v4.81l0.84,0.07v0.41h-2.46v-0.41l0.84-0.08V176.09z"/>
		<path class="st2" d="M164.27,179.82c0.27-0.38,0.4-0.93,0.4-1.65c0-0.69-0.12-1.26-0.37-1.7s-0.64-0.66-1.16-0.66
			c-0.49,0-0.88,0.19-1.15,0.57c-0.27,0.38-0.41,0.93-0.41,1.65c0,0.7,0.13,1.27,0.38,1.7c0.25,0.44,0.64,0.66,1.16,0.66
			C163.62,180.38,164,180.19,164.27,179.82 M161.06,176.61c0.23-0.42,0.54-0.74,0.92-0.97c0.38-0.22,0.78-0.34,1.19-0.34
			c0.81,0,1.4,0.26,1.79,0.79c0.39,0.52,0.58,1.2,0.58,2.01c0,0.56-0.12,1.05-0.35,1.47s-0.54,0.74-0.92,0.97
			c-0.38,0.22-0.78,0.34-1.19,0.34c-0.8,0-1.4-0.26-1.79-0.79c-0.39-0.52-0.58-1.2-0.58-2.01
			C160.71,177.52,160.83,177.04,161.06,176.61"/>
		<path class="st2" d="M167.4,176.09l-0.74-0.16v-0.43l1.22-0.15h0.03l0.18,0.15v0.42l-0.01,0.24c0.24-0.2,0.55-0.39,0.94-0.57
			s0.75-0.26,1.08-0.26c0.41,0,0.72,0.08,0.94,0.24c0.22,0.16,0.37,0.4,0.46,0.72c0.09,0.32,0.13,0.76,0.13,1.3v2.72l0.72,0.07v0.41
			h-2.14v-0.41l0.64-0.07v-2.72c0-0.4-0.03-0.72-0.08-0.95c-0.05-0.23-0.16-0.4-0.32-0.52c-0.16-0.12-0.39-0.18-0.69-0.18
			c-0.26,0-0.53,0.06-0.83,0.19c-0.3,0.13-0.55,0.28-0.77,0.45v3.72l0.7,0.08v0.41h-2.12v-0.41l0.64-0.08V176.09z"/>
		<path class="st1" d="M176.71,173.9c0-0.18,0.05-0.34,0.16-0.46c0.11-0.12,0.26-0.18,0.44-0.18c0.19,0,0.33,0.05,0.41,0.16
			c0.08,0.11,0.12,0.24,0.12,0.39c0,0.2-0.05,0.35-0.16,0.46s-0.26,0.17-0.46,0.17h-0.01C176.88,174.45,176.71,174.26,176.71,173.9
			 M176.92,176.09l-0.75-0.16v-0.43l1.31-0.15h0.02l0.19,0.15v4.81l0.84,0.07v0.41h-2.46v-0.41l0.84-0.08V176.09z"/>
		<path class="st1" d="M180.2,176.09l-0.74-0.16v-0.43l1.22-0.15h0.03l0.18,0.15v0.42l-0.01,0.24c0.24-0.2,0.55-0.39,0.94-0.57
			s0.75-0.26,1.08-0.26c0.41,0,0.72,0.08,0.94,0.24c0.22,0.16,0.37,0.4,0.46,0.72c0.09,0.32,0.13,0.76,0.13,1.3v2.72l0.72,0.07v0.41
			h-2.14v-0.41l0.64-0.07v-2.72c0-0.4-0.03-0.72-0.08-0.95c-0.05-0.23-0.16-0.4-0.32-0.52c-0.16-0.12-0.39-0.18-0.69-0.18
			c-0.26,0-0.53,0.06-0.83,0.19c-0.3,0.13-0.55,0.28-0.77,0.45v3.72l0.7,0.08v0.41h-2.12v-0.41l0.64-0.08V176.09z"/>
		<path class="st1" d="M196.7,176.03h-0.97v-0.38l0.97-0.18v-0.47c0-0.38,0.1-0.74,0.3-1.06s0.46-0.58,0.77-0.77
			c0.32-0.19,0.65-0.29,0.99-0.29c0.21,0,0.38,0.03,0.54,0.08v0.79c-0.05-0.04-0.16-0.08-0.31-0.12c-0.16-0.04-0.34-0.06-0.54-0.06
			c-0.34,0-0.59,0.09-0.74,0.27c-0.15,0.18-0.23,0.48-0.23,0.91v0.72h1.39v0.57h-1.39v4.27l1.09,0.07v0.41h-2.71v-0.41l0.84-0.08
			V176.03z"/>
		<path class="st1" d="M200.07,180.37l0.77-0.06v-4.23l-0.74-0.16v-0.43l1.22-0.15h0.02l0.18,0.15v0.15l-0.02,0.73h0.02
			c0.01-0.01,0.1-0.11,0.25-0.29c0.16-0.18,0.39-0.36,0.7-0.52c0.31-0.17,0.62-0.25,0.94-0.25c0.1,0,0.2,0.01,0.29,0.04v0.84
			c-0.03-0.02-0.08-0.04-0.17-0.06c-0.09-0.02-0.18-0.03-0.27-0.03c-0.36,0-0.68,0.05-0.93,0.16c-0.26,0.11-0.49,0.24-0.71,0.4v3.64
			l1.28,0.08v0.39h-2.82V180.37z"/>
		<path class="st1" d="M205.34,173.9c0-0.18,0.05-0.34,0.16-0.46c0.11-0.12,0.26-0.18,0.44-0.18c0.19,0,0.33,0.05,0.41,0.16
			c0.08,0.11,0.12,0.24,0.12,0.39c0,0.2-0.05,0.35-0.16,0.46s-0.26,0.17-0.46,0.17h-0.01C205.51,174.45,205.34,174.26,205.34,173.9
			 M205.55,176.09l-0.75-0.16v-0.43l1.31-0.15h0.02l0.19,0.15v4.81l0.83,0.07v0.41h-2.46v-0.41l0.84-0.08V176.09z"/>
		<path class="st1" d="M208.42,176.72c0.2-0.43,0.5-0.77,0.9-1.03c0.4-0.26,0.89-0.38,1.46-0.38c0.25,0,0.49,0.03,0.73,0.09
			c0.24,0.06,0.44,0.13,0.61,0.2l-0.04,1.37h-0.48l-0.2-0.92c-0.04-0.19-0.31-0.29-0.82-0.29c-0.5,0-0.9,0.19-1.19,0.58
			c-0.3,0.38-0.45,0.91-0.45,1.57c0,0.79,0.16,1.39,0.48,1.8c0.32,0.41,0.74,0.61,1.25,0.61c0.27,0,0.53-0.05,0.78-0.13
			c0.25-0.09,0.46-0.19,0.63-0.31l0.15,0.32c-0.19,0.19-0.44,0.35-0.77,0.48c-0.33,0.13-0.65,0.2-0.97,0.2
			c-0.51,0-0.94-0.12-1.29-0.36c-0.36-0.24-0.63-0.57-0.81-0.98c-0.18-0.41-0.27-0.88-0.27-1.39
			C208.12,177.63,208.22,177.16,208.42,176.72"/>
		<path class="st1" d="M216.08,180.14c0.25-0.12,0.48-0.25,0.68-0.41v-1.7c-0.77,0.01-1.36,0.12-1.76,0.35
			c-0.4,0.22-0.6,0.52-0.6,0.9c0,0.36,0.09,0.63,0.28,0.79c0.19,0.16,0.44,0.24,0.76,0.24
			C215.62,180.32,215.83,180.26,216.08,180.14 M214.47,178.03c0.61-0.28,1.38-0.43,2.29-0.45v-0.3c0-0.33-0.03-0.58-0.1-0.77
			c-0.07-0.19-0.18-0.32-0.35-0.41c-0.17-0.09-0.4-0.13-0.7-0.13c-0.33,0-0.62,0.05-0.89,0.15c-0.27,0.1-0.52,0.22-0.77,0.36
			l-0.21-0.42c0.07-0.06,0.22-0.15,0.44-0.27c0.22-0.11,0.48-0.22,0.77-0.31c0.29-0.09,0.57-0.13,0.84-0.13
			c0.43,0,0.78,0.06,1.03,0.18c0.25,0.12,0.43,0.32,0.55,0.59c0.11,0.27,0.17,0.63,0.17,1.08v3.16h0.6v0.35
			c-0.35,0.1-0.65,0.14-0.89,0.14c-0.15,0-0.26-0.02-0.32-0.07c-0.06-0.05-0.09-0.16-0.09-0.33v-0.36c-0.23,0.2-0.48,0.39-0.75,0.54
			c-0.27,0.16-0.58,0.23-0.93,0.23c-0.46,0-0.84-0.13-1.15-0.38c-0.3-0.25-0.46-0.63-0.46-1.12
			C213.55,178.76,213.86,178.31,214.47,178.03"/>
		<path class="st2" d="M67.76,158.34l-1.67-10.33l-1.67,10.33H67.76z M63.66,142.27h4.8l4.92,24.6h-4.16l-0.97-5.68h-4.28l-1,5.68
			h-4.22L63.66,142.27z"/>
		<polygon class="st2" points="76.44,142.27 86.56,142.27 86.56,145.37 80.91,145.37 80.91,152.53 85.53,152.53 85.53,155.66 
			80.91,155.66 80.91,166.87 76.44,166.87 		"/>
		<rect x="107.37" y="142.27" class="st2" width="4.44" height="24.6"/>
		<path class="st2" d="M140.99,158.34l-1.67-10.33l-1.67,10.33H140.99z M136.89,142.27h4.8l4.92,24.6h-4.16l-0.97-5.68h-4.28
			l-1,5.68h-4.22L136.89,142.27z"/>
		<polygon class="st2" points="183.99,142.27 188.46,142.27 188.46,163.8 194.44,163.8 194.44,166.87 183.99,166.87 		"/>
		<rect x="197.51" y="142.27" class="st2" width="4.44" height="24.6"/>
		<polygon class="st2" points="59.46,173.65 61.79,173.65 61.79,174.06 60.91,174.17 62.58,178.79 62.98,180.1 63.35,178.77 
			64.84,174.17 64.08,174.06 64.08,173.65 66.1,173.65 66.1,174.06 65.49,174.17 63.17,180.85 62.54,180.85 60.06,174.17 
			59.46,174.06 		"/>
		<polygon class="st2" points="88.3,173.53 87.49,173.44 87.49,173.08 88.89,172.92 88.9,172.92 89.08,173.05 89.08,180.3 
			89.98,180.36 89.98,180.78 87.46,180.78 87.46,180.36 88.3,180.29 		"/>
		<path class="st1" d="M191.91,175.06l-0.27-0.91l-0.26,0.94l-1.05,3.17h2.66L191.91,175.06z M191.35,173.58h0.79l2.41,6.7
			l0.62,0.09v0.41h-2.34v-0.41l0.84-0.09l-0.51-1.52h-2.99l-0.51,1.52l0.85,0.1v0.41h-2.16v-0.41l0.61-0.09L191.35,173.58z"/>
	</g>
</g>
</svg>
